<svg id="Layer_1" data-name="Layer 1" xmlns="http://www.w3.org/2000/svg" width="35" height="35" viewBox="0 0 24 24"><defs><style>.cls-1{fill:#0084ff;}.cls-2{fill:none;}.cls-3{fill:#fff;}</style></defs><title>storePin</title><path class="cls-1" d="M12,2A7,7,0,0,0,5,9c0,5.25,7,13,7,13s7-7.75,7-13A7,7,0,0,0,12,2Z"/><path class="cls-2" d="M0,0H24V24H0Z"/><rect class="cls-3" x="8.44" y="4.89" width="7.11" height="0.89"/><polyline class="cls-3" points="16 8.44 15.56 6.22 8.44 6.22 8 8.44 8 9.33 8.44 9.33 8.44 12 12.89 12 12.89 9.33 14.67 9.33 14.67 12 15.56 12 15.56 9.33 16 9.33"/><rect class="cls-1" x="9.33" y="9.33" width="2.67" height="1.78"/></svg>